name Run_500 02_newCOP3_v24.mot
datacolumns 19
datarows 27
range 4.04583300 4.07291700
endheader
                time	   R_ground_force_vx	   R_ground_force_vy	   R_ground_force_vz	   R_ground_force_px	   R_ground_force_py	   R_ground_force_pz	   L_ground_force_vx	   L_ground_force_vy	   L_ground_force_vz	   L_ground_force_px	   L_ground_force_py	   L_ground_force_pz	   R_ground_torque_x	   R_ground_torque_y	   R_ground_torque_z	   L_ground_torque_x	   L_ground_torque_y	   L_ground_torque_z	
          4.04583300	          0.00000000	          0.00000000	          0.00000000	          0.00000000	          0.00000000	          0.00000000	       -151.38302600	       1598.32519500	         78.91791500	          0.81519500	          0.00000000	         -0.43836600	          0.00000000	          0.00000000	          0.00000000	          0.00000000	         -4.66790500	          0.00000000	
          4.04687500	          0.00000000	          0.00000000	          0.00000000	          0.00000000	          0.00000000	          0.00000000	       -143.33718900	       1601.69287100	         78.56925200	          0.81064800	          0.00000000	         -0.43866200	          0.00000000	          0.00000000	          0.00000000	          0.00000000	         -4.63663400	          0.00000000	
          4.04791700	          0.00000000	          0.00000000	          0.00000000	          0.00000000	          0.00000000	          0.00000000	       -135.10424800	       1604.36950700	         77.91580200	          0.80607400	          0.00000000	         -0.43900400	          0.00000000	          0.00000000	          0.00000000	          0.00000000	         -4.59764200	          0.00000000	
          4.04895800	          0.00000000	          0.00000000	          0.00000000	          0.00000000	          0.00000000	          0.00000000	       -126.71224200	       1606.37524400	         76.97937000	          0.80147900	          0.00000000	         -0.43938400	          0.00000000	          0.00000000	          0.00000000	          0.00000000	         -4.55089700	          0.00000000	
          4.05000000	          0.00000000	          0.00000000	          0.00000000	          0.00000000	          0.00000000	          0.00000000	       -118.18959000	       1607.73278800	         75.78612500	          0.79686700	          0.00000000	         -0.43979200	          0.00000000	          0.00000000	          0.00000000	          0.00000000	         -4.49641700	          0.00000000	
          4.05104200	          0.00000000	          0.00000000	          0.00000000	          0.00000000	          0.00000000	          0.00000000	       -109.56516300	       1608.46643100	         74.36588300	          0.79224600	          0.00000000	         -0.44022100	          0.00000000	          0.00000000	          0.00000000	          0.00000000	         -4.43426800	          0.00000000	
          4.05208300	          0.00000000	          0.00000000	          0.00000000	          0.00000000	          0.00000000	          0.00000000	       -100.86813400	       1608.60168500	         72.75122800	          0.78762000	          0.00000000	         -0.44066100	          0.00000000	          0.00000000	          0.00000000	          0.00000000	         -4.36456300	          0.00000000	
          4.05312500	          0.00000000	          0.00000000	          0.00000000	          0.00000000	          0.00000000	          0.00000000	        -92.12785300	       1608.16381800	         70.97663100	          0.78299600	          0.00000000	         -0.44110300	          0.00000000	          0.00000000	          0.00000000	          0.00000000	         -4.28746200	          0.00000000	
          4.05416700	          0.00000000	          0.00000000	          0.00000000	          0.00000000	          0.00000000	          0.00000000	        -83.37354300	       1607.17773400	         69.07754500	          0.77837900	          0.00000000	         -0.44153700	          0.00000000	          0.00000000	          0.00000000	          0.00000000	         -4.20316100	          0.00000000	
          4.05520800	          0.00000000	          0.00000000	          0.00000000	          0.00000000	          0.00000000	          0.00000000	        -74.63388800	       1605.66699200	         67.08950800	          0.77377600	          0.00000000	         -0.44195400	          0.00000000	          0.00000000	          0.00000000	          0.00000000	         -4.11189600	          0.00000000	
          4.05625000	          0.00000000	          0.00000000	          0.00000000	          0.00000000	          0.00000000	          0.00000000	        -65.93657700	       1603.65258800	         65.04725600	          0.76919200	          0.00000000	         -0.44234700	          0.00000000	          0.00000000	          0.00000000	          0.00000000	         -4.01393400	          0.00000000	
          4.05729200	          0.00000000	          0.00000000	          0.00000000	          0.00000000	          0.00000000	          0.00000000	        -57.30773500	       1601.15344200	         62.98394000	          0.76463300	          0.00000000	         -0.44270800	          0.00000000	          0.00000000	          0.00000000	          0.00000000	         -3.90957000	          0.00000000	
          4.05833300	          0.00000000	          0.00000000	          0.00000000	          0.00000000	          0.00000000	          0.00000000	        -48.77131700	       1598.18493700	         60.93034000	          0.76010300	          0.00000000	         -0.44303000	          0.00000000	          0.00000000	          0.00000000	          0.00000000	         -3.79912400	          0.00000000	
          4.05937500	          0.00000000	          0.00000000	          0.00000000	          0.00000000	          0.00000000	          0.00000000	        -40.34852200	       1594.75915500	         58.91423400	          0.75560900	          0.00000000	         -0.44330700	          0.00000000	          0.00000000	          0.00000000	          0.00000000	         -3.68293500	          0.00000000	
          4.06041700	          0.00000000	          0.00000000	          0.00000000	          0.00000000	          0.00000000	          0.00000000	        -32.05725500	       1590.88452100	         56.95983900	          0.75115200	          0.00000000	         -0.44353600	          0.00000000	          0.00000000	          0.00000000	          0.00000000	         -3.56135700	          0.00000000	
          4.06145800	          0.00000000	          0.00000000	          0.00000000	          0.00000000	          0.00000000	          0.00000000	        -23.91165400	       1586.56567400	         55.08736800	          0.74673800	          0.00000000	         -0.44371400	          0.00000000	          0.00000000	          0.00000000	          0.00000000	         -3.43475300	          0.00000000	
          4.06250000	          0.00000000	          0.00000000	          0.00000000	          0.00000000	          0.00000000	          0.00000000	        -15.92172100	       1581.80358900	         53.31271400	          0.74236700	          0.00000000	         -0.44383800	          0.00000000	          0.00000000	          0.00000000	          0.00000000	         -3.30349500	          0.00000000	
          4.06354200	          0.00000000	          0.00000000	          0.00000000	          0.00000000	          0.00000000	          0.00000000	         -8.09313500	       1576.59594700	         51.64727800	          0.73804100	          0.00000000	         -0.44390800	          0.00000000	          0.00000000	          0.00000000	          0.00000000	         -3.16795700	          0.00000000	
          4.06458300	          0.00000000	          0.00000000	          0.00000000	          0.00000000	          0.00000000	          0.00000000	         -0.42717800	       1570.93713400	         50.09788500	          0.73376000	          0.00000000	         -0.44392500	          0.00000000	          0.00000000	          0.00000000	          0.00000000	         -3.02851300	          0.00000000	
          4.06562500	          0.00000000	          0.00000000	          0.00000000	          0.00000000	          0.00000000	          0.00000000	          7.07914300	       1564.81848100	         48.66686600	          0.72952300	          0.00000000	         -0.44389000	          0.00000000	          0.00000000	          0.00000000	          0.00000000	         -2.88553400	          0.00000000	
          4.06666700	          0.00000000	          0.00000000	          0.00000000	          0.00000000	          0.00000000	          0.00000000	         14.43281600	       1558.22924800	         47.35224200	          0.72532800	          0.00000000	         -0.44380600	          0.00000000	          0.00000000	          0.00000000	          0.00000000	         -2.73938400	          0.00000000	
          4.06770800	          0.00000000	          0.00000000	          0.00000000	          0.00000000	          0.00000000	          0.00000000	         21.64438800	       1551.15637200	         46.14800600	          0.72117100	          0.00000000	         -0.44367600	          0.00000000	          0.00000000	          0.00000000	          0.00000000	         -2.59042100	          0.00000000	
          4.06875000	          0.00000000	          0.00000000	          0.00000000	          0.00000000	          0.00000000	          0.00000000	         28.72739000	       1543.58532700	         45.04452900	          0.71704800	          0.00000000	         -0.44350600	          0.00000000	          0.00000000	          0.00000000	          0.00000000	         -2.43899100	          0.00000000	
          4.06979200	          0.00000000	          0.00000000	          0.00000000	          0.00000000	          0.00000000	          0.00000000	         35.69765500	       1535.50024400	         44.02903000	          0.71295400	          0.00000000	         -0.44330100	          0.00000000	          0.00000000	          0.00000000	          0.00000000	         -2.28543200	          0.00000000	
          4.07083300	          0.00000000	          0.00000000	          0.00000000	          0.00000000	          0.00000000	          0.00000000	         42.57253300	       1526.88488800	         43.08610900	          0.70888100	          0.00000000	         -0.44306500	          0.00000000	          0.00000000	          0.00000000	          0.00000000	         -2.13006800	          0.00000000	
          4.07187500	          0.00000000	          0.00000000	          0.00000000	          0.00000000	          0.00000000	          0.00000000	         49.37008700	       1517.72241200	         42.19834900	          0.70482300	          0.00000000	         -0.44280700	          0.00000000	          0.00000000	          0.00000000	          0.00000000	         -1.97321300	          0.00000000	
          4.07291700	          0.00000000	          0.00000000	          0.00000000	          0.00000000	          0.00000000	          0.00000000	         56.10826100	       1507.99621600	         41.34692800	          0.70077200	          0.00000000	         -0.44253100	          0.00000000	          0.00000000	          0.00000000	          0.00000000	         -1.81516700	          0.00000000	
